<?xml version="1.0" encoding="UTF-8"?>
<svg version="1.1" xmlns="http://www.w3.org/2000/svg" width="80" height="60">
<path d="M0 0 C5.70837017 3.32753926 8.39124272 7.24712413 10.75 13.3125 C11.54711748 17.51548308 12.02776083 21.67546958 11.4375 25.9375 C9.4375 27.9375 9.4375 27.9375 6.64013672 28.16455078 C5.47756348 28.15407715 4.31499023 28.14360352 3.1171875 28.1328125 C1.23193359 28.12314453 1.23193359 28.12314453 -0.69140625 28.11328125 C-2.01011719 28.09652344 -3.32882813 28.07976563 -4.6875 28.0625 C-6.02733721 28.05246983 -7.36718152 28.04334404 -8.70703125 28.03515625 C-11.99236573 28.01152075 -15.27734465 27.97857234 -18.5625 27.9375 C-18.5625 24.9675 -18.5625 21.9975 -18.5625 18.9375 C-11.9625 18.9375 -5.3625 18.9375 1.4375 18.9375 C-2.78005775 11.13156592 -2.78005775 11.13156592 -9.5625 7.9375 C-14.81389697 7.8166714 -19.404714 8.53567509 -23.5625 11.9375 C-24.89043606 14.00450655 -24.89043606 14.00450655 -25.5625 15.9375 C-24.7375 16.72125 -23.9125 17.505 -23.0625 18.3125 C-20.5625 20.9375 -20.5625 20.9375 -20.5625 22.9375 C-26.1725 22.9375 -31.7825 22.9375 -37.5625 22.9375 C-37.5625 17.3275 -37.5625 11.7175 -37.5625 5.9375 C-35.0875 6.9275 -35.0875 6.9275 -32.5625 7.9375 C-32.35625 7.36 -32.15 6.7825 -31.9375 6.1875 C-25.69191429 -4.03254935 -9.80350805 -4.47487454 0 0 Z " fill="#062413" transform="translate(53.5625,6.0625)"/>
<path d="M0 0 C3.3 0 6.6 0 10 0 C10.53625 1.2375 11.0725 2.475 11.625 3.75 C13.736689 7.90715778 15.68805253 9.96606251 20 12 C25.15295367 13.16565918 29.82918815 13.19326427 35 12 C32.525 8.535 32.525 8.535 30 5 C31 4 31 4 34.59765625 3.90234375 C36.08597255 3.90808728 37.57426296 3.92110109 39.0625 3.9375 C41.681875 3.958125 44.30125 3.97875 47 4 C47 9.94 47 15.88 47 22 C46.01 21.34 45.02 20.68 44 20 C41.32332348 20.28175542 39.22902389 20.89457631 36.78515625 22.01953125 C29.63537601 24.53649456 20.38339318 24.14034988 13.5 21 C7.81638453 17.66561226 3.65927207 13.10211735 0.5625 7.3125 C0 5 0 5 0 0 Z " fill="#0A351E" transform="translate(16,33)"/>
<path d="M0 0 C6.6349706 0.46561197 11.79185364 1.57967465 16.4765625 6.57421875 C21.08013419 12.56424624 22.21452547 18.65982476 22.265625 26.08203125 C22 28 22 28 20 30 C17.20263672 30.22705078 17.20263672 30.22705078 13.6796875 30.1953125 C11.79443359 30.18564453 11.79443359 30.18564453 9.87109375 30.17578125 C8.55238281 30.15902344 7.23367187 30.14226563 5.875 30.125 C4.53516279 30.11496983 3.19531848 30.10584404 1.85546875 30.09765625 C-1.42986573 30.07402075 -4.71484465 30.04107234 -8 30 C-8 27.03 -8 24.06 -8 21 C-6.56785156 21.01160156 -5.13570312 21.02320312 -3.66015625 21.03515625 C-1.79427213 21.04453255 0.07161339 21.05363292 1.9375 21.0625 C2.88302734 21.07087891 3.82855469 21.07925781 4.80273438 21.08789062 C5.70185547 21.09111328 6.60097656 21.09433594 7.52734375 21.09765625 C8.35999756 21.10289307 9.19265137 21.10812988 10.05053711 21.11352539 C12.00516798 21.21643292 12.00516798 21.21643292 13 20 C13.41079803 14.76232506 12.8555662 11.43105099 10 7 C6.91114228 4.07371374 4.01549231 2.37674022 0 1 C0 0.67 0 0.34 0 0 Z " fill="#0E492B" transform="translate(43,4)"/>
</svg>
